<?xml version="1.0" encoding="UTF-8" standalone="no"?>
<!-- Created with Inkscape (http://www.inkscape.org/) -->

<svg
   width="51.433048mm"
   height="9.1283026mm"
   viewBox="0 0 51.433048 9.1283026"
   version="1.1"
   id="svg1"
   xmlns:xlink="http://www.w3.org/1999/xlink"
   xmlns="http://www.w3.org/2000/svg"
   xmlns:svg="http://www.w3.org/2000/svg">
  <defs
     id="defs1">
    <linearGradient
       id="linearGradient3">
      <stop
         style="stop-color:#237fdf;stop-opacity:1;"
         offset="0"
         id="stop3" />
      <stop
         style="stop-color:#16328a;stop-opacity:1;"
         offset="1"
         id="stop4" />
    </linearGradient>
    <linearGradient
       xlink:href="#linearGradient3"
       id="linearGradient4"
       x1="12.996938"
       y1="63.885414"
       x2="62.796738"
       y2="70.307312"
       gradientUnits="userSpaceOnUse" />
  </defs>
  <g
     id="layer1"
     transform="translate(-18.011048,-63.207892)">
    <path
       style="color:#000000;fill:url(#linearGradient4);stroke-linecap:round;-inkscape-stroke:none"
       d="m 26.894531,63.210937 c -2.031148,0.06511 -4.017924,1.338321 -5.658203,2.601563 -0.820139,0.631621 -1.537508,1.275966 -2.076172,1.820312 -0.269332,0.272174 -0.493004,0.518082 -0.671875,0.740235 -0.178871,0.222153 -0.323168,0.288768 -0.447265,0.785156 a 1,1 0 0 0 0.726562,1.212891 1,1 0 0 0 1.212891,-0.726563 c -0.08426,0.337056 -0.04929,0.126115 0.06641,-0.01758 0.115697,-0.143693 0.301229,-0.351496 0.535156,-0.587891 0.467854,-0.472789 1.13013,-1.068925 1.875,-1.642578 1.48974,-1.147306 3.379264,-2.14956 4.501953,-2.185547 1.78128,-0.0571 3.393719,1.242843 5.203125,2.867188 1.809406,1.624345 3.76079,3.550193 6.455078,3.820312 2.878741,0.288612 5.377796,-1.132708 7.695313,-2.410156 2.317517,-1.277447 4.461184,-2.413408 6.558594,-2.248047 1.448661,0.114214 2.857515,1.188892 4.417968,2.423828 1.560454,1.234937 3.294254,2.638963 5.576172,2.669922 1.035776,0.01405 1.766845,-0.02814 2.560547,-0.447265 0.793702,-0.419127 1.628394,-1.077282 3.576172,-2.386719 a 1,1 0 0 0 0.271484,-1.388672 1,1 0 0 0 -1.386718,-0.271484 c -1.980201,1.331234 -2.901912,2.019161 -3.394532,2.279297 -0.492619,0.260135 -0.578886,0.228691 -1.599609,0.214843 -1.437163,-0.0195 -2.81384,-1.013605 -4.361328,-2.238281 -1.547488,-1.224676 -3.24465,-2.671487 -5.503906,-2.849609 -2.878881,-0.226973 -5.367026,1.215463 -7.679688,2.490234 -2.312662,1.274771 -4.441203,2.38122 -6.529297,2.171875 -1.802265,-0.180688 -3.48776,-1.673235 -5.320312,-3.318359 -1.832553,-1.645124 -3.86802,-3.46659 -6.603516,-3.378907 z"
       id="path1" />
  </g>
</svg>
